<svg xmlns="http://www.w3.org/2000/svg" width="225" height="171.632" viewBox="0 0 225 171.632">
  <g id="Group_6" data-name="Group 6" transform="translate(990 197.034)">
    <path id="Path_5" data-name="Path 5" d="M-969.361-96.3s11.227-31.958,39.815-59.318c26.4-20.673,61.413-32,97.222-25.463,31.482,7.87,62.963,20.37,87.963,84.781" transform="translate(-20.639 -14.098)" fill="#f5b673"/>
    <path id="Path_3" data-name="Path 3" d="M-969.361-112.5a137.921,137.921,0,0,1,32.372-48.229c21.466-16.808,49.932-26.019,79.047-20.7,25.6,6.4,51.192,16.562,71.519,68.932" fill="#fff"/>
    <path id="Path_6" data-name="Path 6" d="M-969.361-96.3s11.227-31.958,39.815-59.318c26.4-20.673,61.413-32,97.222-25.463,31.482,7.87,62.963,20.37,87.963,84.781" transform="translate(-1734.361 -208.339) rotate(180)" fill="#f5a557"/>
    <path id="Path_4" data-name="Path 4" d="M-969.361-112.5a137.921,137.921,0,0,1,32.372-48.229c21.466-16.808,49.932-26.019,79.047-20.7,25.6,6.4,51.192,16.562,71.519,68.932" transform="translate(-1755.784 -225.436) rotate(180)" fill="#fff"/>
    <circle id="Ellipse_3" data-name="Ellipse 3" cx="65" cy="65" r="65" transform="translate(-942 -177)" fill="#4ec1f5"/>
    <path id="Path_7" data-name="Path 7" d="M110.962,19.038a65,65,0,1,1-91.924,91.924C18.494,110.423,110.684,18.763,110.962,19.038Z" transform="translate(-942 -177)" fill="#0299e3" opacity="0.44"/>
    <circle id="Ellipse_2" data-name="Ellipse 2" cx="21.5" cy="21.5" r="21.5" transform="translate(-899 -134)" fill="#445a64"/>
    <path id="Path_8" data-name="Path 8" d="M21.5,0a21.5,21.5,0,0,1,0,43Z" transform="translate(-877.5 -142.906) rotate(45)" fill="#36464e" opacity="0.36"/>
  </g>
</svg>
